<?xml version="1.0" encoding="UTF-8"?><svg id="Layer_1" xmlns="http://www.w3.org/2000/svg" viewBox="0 0 31.8764 31.0892"><path d="M15.9372,0C7.1366,0,0,7.1357,0,15.9391c0,7.0411,4.5663,13.0149,10.9003,15.1227,.7969,.1462,1.0878-.3459,1.0878-.7683,0-.3784-.0138-1.3807-.0215-2.7107-4.4335,.9632-5.3689-2.1365-5.3689-2.1365-.7247-1.8412-1.7696-2.3314-1.7696-2.3314-1.4471-.9889,.1095-.9688,.1095-.9688,1.5994,.1127,2.4413,1.6425,2.4413,1.6425,1.4218,2.4356,3.7303,1.7323,4.6384,1.3243,.1448-1.03,.5565-1.7323,1.0119-2.1307-3.5392-.4022-7.2599-1.7696-7.2599-7.8771,0-1.7399,.621-3.1627,1.6405-4.2768-.1639-.4032-.7108-2.0237,.1563-4.218,0,0,1.3382-.4286,4.3829,1.6339,1.2713-.3535,2.6347-.5303,3.9901-.5365,1.3535,.0062,2.717,.183,3.9901,.5365,3.0428-2.0624,4.3786-1.6339,4.3786-1.6339,.8695,2.1943,.3225,3.8148,.1586,4.218,1.0215,1.1141,1.6383,2.5369,1.6383,4.2768,0,6.1228-3.7264,7.4701-7.2771,7.8647,.5723,.4921,1.082,1.4648,1.082,2.9515,0,2.1307-.0196,3.8497-.0196,4.3723,0,.4262,.2871,.9221,1.0959,.7664,6.3278-2.1117,10.8903-8.0816,10.8903-15.1209C31.8764,7.1357,24.7397,0,15.9372,0Z" fill="currentColor"/></svg>